<svg id="Layer_3" enable-background="new 0 0 64 64" height="512" viewBox="0 0 64 64" width="512" xmlns="http://www.w3.org/2000/svg"><g><g><path d="m43 7h2v5h-2z" fill="#4d5d7a"/></g><g><path d="m53 7h2v5h-2z" fill="#4d5d7a"/></g><path d="m38 62v-46h22v46" fill="#3d98f7"/><path d="m44 56h10v6h-10z" fill="#f5b953"/><path d="m26 42h12v20h-12z" fill="#2b74ca"/><path d="m4 62v-31h22v31" fill="#3d98f7"/><g fill="#fff"><path d="m42 24h4v4h-4z"/><path d="m52 24h4v4h-4z"/><path d="m42 32h4v4h-4z"/><path d="m52 32h4v4h-4z"/><path d="m42 40h4v4h-4z"/><path d="m52 40h4v4h-4z"/><path d="m42 48h4v4h-4z"/><path d="m52 48h4v4h-4z"/><path d="m8 35h4v4h-4z"/><path d="m18 35h4v4h-4z"/><path d="m8 43h4v4h-4z"/><path d="m18 43h4v4h-4z"/><path d="m8 51h4v4h-4z"/><path d="m18 51h4v4h-4z"/></g><path d="m40 16v-4h18v4" fill="#f5b953"/><path d="m6 31v-4h18v4" fill="#f5b953"/><ellipse cx="44" cy="5" fill="#669e4f" rx="2" ry="3"/><ellipse cx="54" cy="5" fill="#669e4f" rx="2" ry="3"/><g><path d="m1 61h62v2h-62z" fill="#4d5d7a"/></g><g><path d="m29 45h2v2h-2z" fill="#fff"/></g><g><path d="m33 45h2v2h-2z" fill="#fff"/></g><g><path d="m29 49h2v2h-2z" fill="#fff"/></g><g><path d="m33 49h2v2h-2z" fill="#fff"/></g><g><path d="m29 53h2v2h-2z" fill="#fff"/></g><g><path d="m33 53h2v2h-2z" fill="#fff"/></g><g><path d="m29 57h2v2h-2z" fill="#fff"/></g><g><path d="m33 57h2v2h-2z" fill="#fff"/></g><g><path d="m41 19h16v2h-16z" fill="#fff"/></g></g></svg>