<svg id="Capa_1" enable-background="new 0 0 512 512" height="512" viewBox="0 0 512 512" width="512" xmlns="http://www.w3.org/2000/svg"><g><g><path d="m420.788 205.095c-4.143 0-7.5-3.358-7.5-7.5v-35.634c0-4.142 3.357-7.5 7.5-7.5s7.5 3.358 7.5 7.5v35.634c0 4.142-3.357 7.5-7.5 7.5z" fill="#5a5a5a"/></g><path d="m369.978 197.595h83.156c5.159 0 9.341 4.182 9.341 9.341v86.012h-92.497z" fill="#5a5a5a"/><path d="m453.134 197.595h-26.158c5.159 0 9.341 4.182 9.341 9.341v77.278h26.158v-77.278c0-5.159-4.182-9.341-9.341-9.341z" fill="#444"/><circle cx="420.788" cy="236.941" fill="#ddeafb" r="7.477"/><g><path d="m256.501 62.221c-4.143 0-7.5-3.358-7.5-7.5v-39.699c0-4.142 3.357-7.5 7.5-7.5s7.5 3.358 7.5 7.5v39.699c0 4.142-3.357 7.5-7.5 7.5z" fill="#5a5a5a"/></g><path d="m306.602 54.721h-100.202c-5.159 0-9.341 4.182-9.341 9.341v44.968h118.885v-44.968c-.001-5.159-4.183-9.341-9.342-9.341z" fill="#5a5a5a"/><path d="m306.602 54.721h-27.563c5.159 0 9.341 4.182 9.341 9.341v44.968h27.563v-44.968c0-5.159-4.182-9.341-9.341-9.341z" fill="#444"/><path d="m334.322 95.824h-155.642c-5.159 0-9.341 4.182-9.341 9.341v40.739h174.324v-40.739c0-5.158-4.182-9.341-9.341-9.341z" fill="#82aee3"/><path d="m334.322 95.824h-27.915c5.159 0 9.341 4.182 9.341 9.341v40.739h27.915v-40.739c0-5.158-4.182-9.341-9.341-9.341z" fill="#528fd8"/><path d="m369.978 477.681h118.029v-184.125c0-5.159-4.182-9.341-9.341-9.341h-108.688z" fill="#82aee3"/><path d="m478.665 284.215h-23.874c5.159 0 9.341 4.182 9.341 9.341v184.125h23.874v-184.125c0-5.159-4.182-9.341-9.341-9.341z" fill="#528fd8"/><path d="m377.478 450.884h110.528v26.797h-110.528z" fill="#fe646f" transform="matrix(-1 0 0 -1 865.484 928.565)"/><path d="m464.097 450.884h23.909v26.797h-23.909z" fill="#fd4755" transform="matrix(-1 0 0 -1 952.104 928.565)"/><path d="m504.5 470.181h-16.494-110.528c-4.143 0-7.5 3.358-7.5 7.5s3.357 7.5 7.5 7.5h110.528 16.494c4.143 0 7.5-3.358 7.5-7.5s-3.357-7.5-7.5-7.5z" fill="#5a5a5a"/><g><path d="m445.876 340.128h-28.937c-4.143 0-7.5-3.358-7.5-7.5s3.357-7.5 7.5-7.5h28.937c4.143 0 7.5 3.358 7.5 7.5s-3.357 7.5-7.5 7.5z" fill="#ddeafb"/></g><g><path d="m445.876 375.473h-28.937c-4.143 0-7.5-3.358-7.5-7.5s3.357-7.5 7.5-7.5h28.937c4.143 0 7.5 3.358 7.5 7.5s-3.357 7.5-7.5 7.5z" fill="#ddeafb"/></g><g><path d="m445.876 410.817h-28.937c-4.143 0-7.5-3.358-7.5-7.5s3.357-7.5 7.5-7.5h28.937c4.143 0 7.5 3.358 7.5 7.5s-3.357 7.5-7.5 7.5z" fill="#ddeafb"/></g><path d="m108.756 244.513v-82.942s-56.993 7.422-56.993 72.102z" fill="#ddeafb"/><g><path d="m101.31 243.15c-4.143 0-7.5-3.358-7.5-7.5v-113.258c0-4.142 3.357-7.5 7.5-7.5s7.5 3.358 7.5 7.5v113.258c0 4.142-3.357 7.5-7.5 7.5z" fill="#5a5a5a"/></g><path d="m135.52 232.31v245.37h-110.52v-236.03c0-5.16 4.18-9.34 9.34-9.34z" fill="#82aee3"/><path d="m108.81 232.31h26.71v245.37h-26.71z" fill="#528fd8"/><path d="m24.996 450.884h110.528v26.797h-110.528z" fill="#fe646f" transform="matrix(-1 0 0 -1 160.52 928.565)"/><path d="m108.727 450.884h26.797v26.797h-26.797z" fill="#fd4755" transform="matrix(-1 0 0 -1 244.251 928.565)"/><g><path d="m94.502 279.46h-28.937c-4.143 0-7.5-3.358-7.5-7.5s3.357-7.5 7.5-7.5h28.937c4.143 0 7.5 3.358 7.5 7.5s-3.357 7.5-7.5 7.5z" fill="#ddeafb"/></g><g><path d="m94.502 314.804h-28.937c-4.143 0-7.5-3.358-7.5-7.5s3.357-7.5 7.5-7.5h28.937c4.143 0 7.5 3.358 7.5 7.5s-3.357 7.5-7.5 7.5z" fill="#ddeafb"/></g><g><path d="m94.502 350.148h-28.937c-4.143 0-7.5-3.358-7.5-7.5s3.357-7.5 7.5-7.5h28.937c4.143 0 7.5 3.358 7.5 7.5s-3.357 7.5-7.5 7.5z" fill="#ddeafb"/></g><g><path d="m94.502 385.493h-28.937c-4.143 0-7.5-3.358-7.5-7.5s3.357-7.5 7.5-7.5h28.937c4.143 0 7.5 3.358 7.5 7.5s-3.357 7.5-7.5 7.5z" fill="#ddeafb"/></g><g><path d="m94.502 420.837h-28.937c-4.143 0-7.5-3.358-7.5-7.5s3.357-7.5 7.5-7.5h28.937c4.143 0 7.5 3.358 7.5 7.5s-3.357 7.5-7.5 7.5z" fill="#ddeafb"/></g><path d="m135.524 470.181h-110.528c-.169 0-.335.014-.501.025-.166-.011-.332-.025-.501-.025h-16.494c-4.143 0-7.5 3.358-7.5 7.5s3.357 7.5 7.5 7.5h16.494c.169 0 .335-.014.501-.025.166.011.332.025.501.025h110.528c4.143 0 7.5-3.358 7.5-7.5s-3.357-7.5-7.5-7.5z" fill="#5a5a5a"/><path d="m377.478 477.681-120.82 13.398-121.134-13.398v-331.412c0-5.159 4.182-9.341 9.341-9.341h223.271c5.159 0 9.341 4.182 9.341 9.341v331.412z" fill="#ddeafb"/><path d="m368.137 136.927h-26.994c5.159 0 9.341 4.182 9.341 9.341v338.912l26.994-7.5v-331.411c0-5.159-4.182-9.342-9.341-9.342z" fill="#cbe2ff"/><path d="m315.94 321.71v129.17l-59.94 4.87-58.63-4.87v-129.17c0-4.76 3.86-8.62 8.62-8.62h101.33c4.76 0 8.62 3.86 8.62 8.62z" fill="#82aee3"/><path d="m315.94 321.71v129.17h-84.139v-137.79h75.519c4.76 0 8.62 3.86 8.62 8.62z" fill="#528fd8"/><path d="m307.323 313.089h-50.666v137.795h59.286v-129.175c0-4.761-3.859-8.62-8.62-8.62z" fill="#82aee3"/><path d="m307.323 313.089h-27.176c4.761 0 8.62 3.859 8.62 8.62v129.175h27.176v-129.175c0-4.761-3.859-8.62-8.62-8.62z" fill="#528fd8"/><path d="m336.575 450.884h-159.835c-4.001 0-7.245 3.244-7.245 7.245v19.552l86.505 4.069 87.82-4.069v-19.552c0-4.002-3.244-7.245-7.245-7.245z" fill="#fe646f"/><path d="m336.575 450.884h-24.857c4.001 0 7.245 3.244 7.245 7.245v19.552l11.458 4.069 13.399-4.069v-19.552c0-4.002-3.244-7.245-7.245-7.245z" fill="#fd4755"/><g fill="#82aee3"><path d="m188.84 245.163h-11.893c-4.116 0-7.452 3.336-7.452 7.452v11.893c0 4.116 3.336 7.452 7.452 7.452h11.893c4.116 0 7.452-3.336 7.452-7.452v-11.893c0-4.116-3.336-7.452-7.452-7.452z"/><path d="m336.368 245.163h-11.893c-4.116 0-7.452 3.336-7.452 7.452v11.893c0 4.116 3.336 7.452 7.452 7.452h11.893c4.116 0 7.452-3.336 7.452-7.452v-11.893c0-4.116-3.337-7.452-7.452-7.452z"/><path d="m262.604 245.163h-11.893c-4.116 0-7.452 3.336-7.452 7.452v11.893c0 4.116 3.336 7.452 7.452 7.452h11.893c4.116 0 7.452-3.336 7.452-7.452v-11.893c0-4.116-3.336-7.452-7.452-7.452z"/></g><g fill="#82aee3"><path d="m188.84 178.064h-11.893c-4.116 0-7.452 3.336-7.452 7.452v11.893c0 4.116 3.336 7.452 7.452 7.452h11.893c4.116 0 7.452-3.336 7.452-7.452v-11.893c0-4.116-3.336-7.452-7.452-7.452z"/><path d="m336.368 178.064h-11.893c-4.116 0-7.452 3.336-7.452 7.452v11.893c0 4.116 3.336 7.452 7.452 7.452h11.893c4.116 0 7.452-3.336 7.452-7.452v-11.893c0-4.116-3.337-7.452-7.452-7.452z"/><path d="m262.604 178.064h-11.893c-4.116 0-7.452 3.336-7.452 7.452v11.893c0 4.116 3.336 7.452 7.452 7.452h11.893c4.116 0 7.452-3.336 7.452-7.452v-11.893c0-4.116-3.336-7.452-7.452-7.452z"/></g><path d="m377.478 477.681h-241.954v17.456c0 5.159 4.182 9.341 9.341 9.341h223.271c5.159 0 9.341-4.182 9.341-9.341v-17.456z" fill="#5a5a5a"/><path d="m350.484 477.681v17.456c0 5.159-4.182 9.341-9.341 9.341h26.994c5.159 0 9.341-4.182 9.341-9.341v-17.456z" fill="#444"/></g></svg>